<svg class="railroad-diagram" width="485" height="122" viewBox="0 0 485 122">
	<!--
		https://dundalek.com/grammkit
		
		cite
		= "[" prefix "@" key (" "/",") suffix (";" prefix "@" key (" "/",") suffix)* "]"
		altCite
		= "@" "[" key (" "/",") suffix (";" prefix "@" key (" "/",") suffix)* "]"
		citeItems
		= citeItem (";" citeItem)*
		citeItem
		= prefix "@" citeKey " " suffix
	-->

	<style>
		/* https://github.com/dundalek/GrammKit/blob/master/app/diagram.css */
		svg.railroad-diagram {
			background-color: hsl(30, 20%, 95%);
		}

		svg.railroad-diagram path {
			stroke-width: 3;
			stroke: black;
			fill: none;
		}

		svg.railroad-diagram text {
			font: bold 14px monospace;
			text-anchor: middle;
			cursor: pointer;
		}

		svg.railroad-diagram text.label {
			text-anchor: start;
		}

		svg.railroad-diagram text.comment {
			font: italic 12px monospace;
		}

		svg.railroad-diagram rect {
			stroke-width: 3;
			stroke: black;
			fill: hsl(200, 100%, 90%);
		}
	</style>
	<g transform="translate(.5 .5)">
		<path d="M 20 21 v 20 m 10 -20 v 20 m -10 -10 h 20.5"></path>
		<g>
			<path d="M40 31h0"></path>
			<path d="M444 31h0"></path>
			<path d="M40 31h10"></path>
			<g>
				<path d="M50 31h0"></path>
				<path d="M78 31h0"></path>
				<rect x="50" y="20" width="28" height="22" rx="10" ry="10"></rect>
				<text x="64" y="35">@</text>
			</g>
			<path d="M78 31h10"></path>
			<path d="M88 31h10"></path>
			<g>
				<path d="M98 31h0"></path>
				<path d="M126 31h0"></path>
				<rect x="98" y="20" width="28" height="22" rx="10" ry="10"></rect>
				<text x="112" y="35">[</text>
			</g>
			<path d="M126 31h10"></path>
			<path d="M136 31h10"></path>
			<g>
				<path d="M146 31h0"></path>
				<path d="M386 31h0"></path>
				<path d="M146 31h10"></path>
				<g>
					<path d="M156 31h0"></path>
					<path d="M376 31h0"></path>
					<path d="M156 31h10"></path>
					<g>
						<path d="M166 31h0"></path>
						<path d="M210 31h0"></path>
						<rect x="166" y="20" width="44" height="22"></rect>
						<text x="188" y="35">key</text>
					</g>
					<path d="M210 31h10"></path>
					<g>
						<path d="M220 31h0"></path>
						<path d="M288 31h0"></path>
						<path d="M220 31h20"></path>
						<g>
							<path d="M240 31h0"></path>
							<path d="M268 31h0"></path>
							<rect x="240" y="20" width="28" height="22" rx="10" ry="10"></rect>
							<text x="254" y="35"> </text>
						</g>
						<path d="M268 31h20"></path>
						<path d="M220 31a10 10 0 0 1 10 10v10a10 10 0 0 0 10 10"></path>
						<g>
							<path d="M240 61h0"></path>
							<path d="M268 61h0"></path>
							<rect x="240" y="50" width="28" height="22" rx="10" ry="10"></rect>
							<text x="254" y="65">,</text>
						</g>
						<path d="M268 61a10 10 0 0 0 10 -10v-10a10 10 0 0 1 10 -10"></path>
					</g>
					<path d="M288 31h10"></path>
					<g>
						<path d="M298 31h0"></path>
						<path d="M366 31h0"></path>
						<rect x="298" y="20" width="68" height="22"></rect>
						<text x="332" y="35">suffix</text>
					</g>
					<path d="M366 31h10"></path>
				</g>
				<path d="M376 31h10"></path>
				<path d="M156 31a10 10 0 0 0 -10 10v40a10 10 0 0 0 10 10"></path>
				<g>
					<path d="M156 91h18"></path>
					<path d="M358 91h18"></path>
					<path d="M174 91h10"></path>
					<g>
						<path d="M184 91h0"></path>
						<path d="M212 91h0"></path>
						<rect x="184" y="80" width="28" height="22" rx="10" ry="10"></rect>
						<text x="198" y="95">@</text>
					</g>
					<path d="M212 91h10"></path>
					<path d="M222 91h10"></path>
					<g>
						<path d="M232 91h0"></path>
						<path d="M300 91h0"></path>
						<rect x="232" y="80" width="68" height="22"></rect>
						<text x="266" y="95">prefix</text>
					</g>
					<path d="M300 91h10"></path>
					<path d="M310 91h10"></path>
					<g>
						<path d="M320 91h0"></path>
						<path d="M348 91h0"></path>
						<rect x="320" y="80" width="28" height="22" rx="10" ry="10"></rect>
						<text x="334" y="95">;</text>
					</g>
					<path d="M348 91h10"></path>
				</g>
				<path d="M376 91a10 10 0 0 0 10 -10v-40a10 10 0 0 0 -10 -10"></path>
			</g>
			<path d="M386 31h10"></path>
			<path d="M396 31h10"></path>
			<g>
				<path d="M406 31h0"></path>
				<path d="M434 31h0"></path>
				<rect x="406" y="20" width="28" height="22" rx="10" ry="10"></rect>
				<text x="420" y="35">]</text>
			</g>
			<path d="M434 31h10"></path>
		</g>
		<path d="M 444 31 h 20 m -10 -10 v 20 m 10 -20 v 20"></path>
	</g>
</svg>