<svg class="railroad-diagram" width="641" height="132" viewBox="0 0 641 132">
	<!--
https://dundalek.com/grammkit

cite
    = "[" (prefix " ")? "@" key ((" "/",") suffix)? (";" (prefix " ")? "@" key ((" "/",") suffix)?)* "]"

altCite
    /* I need to write in this order        vvvvvvvvvv to work around grammkit bug */
    = "@" "[" key ((" "/",") suffix)? (";" (" " prefix)? "@" key ((" "/",") suffix)?)* "]"
-->
	<style>
		/* https://github.com/dundalek/GrammKit/blob/master/app/diagram.css */
		svg.railroad-diagram {
			background-color: #fff;
		}

		svg.railroad-diagram path {
			stroke-width: 3;
			stroke: #404040;
			fill: none;
		}

		svg.railroad-diagram text {
			font: bold 14px monospace;
			text-anchor: middle;
			cursor: pointer;
		}

		svg.railroad-diagram text.label {
			text-anchor: start;
		}

		svg.railroad-diagram text.comment {
			font: italic 12px monospace;
		}

		svg.railroad-diagram rect {
			stroke-width: 3;
			stroke: #404040;
			fill: hsl(200, 100%, 90%);
		}
	</style>
	<g transform="translate(.5 .5)">
		<path d="M 20 31 v 20 m 10 -20 v 20 m -10 -10 h 20.5"></path>
		<g>
			<path d="M40 41h0"></path>
			<path d="M600 41h0"></path>
			<path d="M40 41h10"></path>
			<g>
				<path d="M50 41h0"></path>
				<path d="M78 41h0"></path>
				<rect x="50" y="30" width="28" height="22" rx="10" ry="10"></rect>
				<text x="64" y="45">[</text>
			</g>
			<path d="M78 41h10"></path>
			<path d="M88 41h10"></path>
			<g>
				<path d="M98 41h0"></path>
				<path d="M542 41h0"></path>
				<path d="M98 41h10"></path>
				<g>
					<path d="M108 41h0"></path>
					<path d="M532 41h0"></path>
					<path d="M108 41h10"></path>
					<g>
						<path d="M118 41h0"></path>
						<path d="M186 41h0"></path>
						<rect x="118" y="30" width="68" height="22"></rect>
						<text x="152" y="45">prefix</text>
					</g>
					<path d="M186 41h10"></path>
					<g>
						<path d="M196 41h0"></path>
						<path d="M264 41h0"></path>
						<path d="M196 41a10 10 0 0 0 10 -10v0a10 10 0 0 1 10 -10"></path>
						<g>
							<path d="M216 21h28"></path>
						</g>
						<path d="M244 21a10 10 0 0 1 10 10v0a10 10 0 0 0 10 10"></path>
						<path d="M196 41h20"></path>
						<g>
							<path d="M216 41h0"></path>
							<path d="M244 41h0"></path>
							<rect x="216" y="30" width="28" height="22" rx="10" ry="10"></rect>
							<text x="230" y="45">-</text>
						</g>
						<path d="M244 41h20"></path>
					</g>
					<path d="M264 41h10"></path>
					<g>
						<path d="M274 41h0"></path>
						<path d="M302 41h0"></path>
						<rect x="274" y="30" width="28" height="22" rx="10" ry="10"></rect>
						<text x="288" y="45">@</text>
					</g>
					<path d="M302 41h10"></path>
					<path d="M312 41h10"></path>
					<g>
						<path d="M322 41h0"></path>
						<path d="M366 41h0"></path>
						<rect x="322" y="30" width="44" height="22"></rect>
						<text x="344" y="45">key</text>
					</g>
					<path d="M366 41h10"></path>
					<g>
						<path d="M376 41h0"></path>
						<path d="M444 41h0"></path>
						<path d="M376 41h20"></path>
						<g>
							<path d="M396 41h0"></path>
							<path d="M424 41h0"></path>
							<rect x="396" y="30" width="28" height="22" rx="10" ry="10"></rect>
							<text x="410" y="45"> </text>
						</g>
						<path d="M424 41h20"></path>
						<path d="M376 41a10 10 0 0 1 10 10v10a10 10 0 0 0 10 10"></path>
						<g>
							<path d="M396 71h0"></path>
							<path d="M424 71h0"></path>
							<rect x="396" y="60" width="28" height="22" rx="10" ry="10"></rect>
							<text x="410" y="75">,</text>
						</g>
						<path d="M424 71a10 10 0 0 0 10 -10v-10a10 10 0 0 1 10 -10"></path>
					</g>
					<path d="M444 41h10"></path>
					<g>
						<path d="M454 41h0"></path>
						<path d="M522 41h0"></path>
						<rect x="454" y="30" width="68" height="22"></rect>
						<text x="488" y="45">suffix</text>
					</g>
					<path d="M522 41h10"></path>
				</g>
				<path d="M532 41h10"></path>
				<path d="M108 41a10 10 0 0 0 -10 10v40a10 10 0 0 0 10 10"></path>
				<g>
					<path d="M108 101h188"></path>
					<path d="M344 101h188"></path>
					<path d="M296 101h10"></path>
					<g>
						<path d="M306 101h0"></path>
						<path d="M334 101h0"></path>
						<rect x="306" y="90" width="28" height="22" rx="10" ry="10"></rect>
						<text x="320" y="105">;</text>
					</g>
					<path d="M334 101h10"></path>
				</g>
				<path d="M532 101a10 10 0 0 0 10 -10v-40a10 10 0 0 0 -10 -10"></path>
			</g>
			<path d="M542 41h10"></path>
			<path d="M552 41h10"></path>
			<g>
				<path d="M562 41h0"></path>
				<path d="M590 41h0"></path>
				<rect x="562" y="30" width="28" height="22" rx="10" ry="10"></rect>
				<text x="576" y="45">]</text>
			</g>
			<path d="M590 41h10"></path>
		</g>
		<path d="M 600 41 h 20 m -10 -10 v 20 m 10 -20 v 20"></path>
	</g>
</svg>